<svg height="48px" viewBox="0 0 512 512" width="48px" fill="url(#grey-gradient)" xmlns="http://www.w3.org/2000/svg">  
  <linearGradient id="grey-gradient" x2="1" y2="1">
    <stop offset="0%" stop-color="#1f1c2c" />
    <stop offset="100%" stop-color="#928dab" />
  </linearGradient>
  <path d="m291.308594 14.652344c.089844-3.535156-1.917969-6.789063-5.117188-8.296875-19.234375-8.472657-41.148437-8.472657-60.382812 0-3.199219 1.507812-5.207032 4.761719-5.117188 8.296875v11.832031h70.617188zm0 0"/><path d="m220.691406 44.136719h70.617188v185.378906h-70.617188zm0 0"/><path d="m220.691406 247.171875h70.617188v17.65625h-70.617188zm0 0"/><path d="m225.808594 505.644531c19.234375 8.472657 41.148437 8.472657 60.382812 0 3.199219-1.507812 5.207032-4.761719 5.117188-8.296875v-11.832031h-70.617188v11.832031c-.089844 3.535156 1.917969 6.789063 5.117188 8.296875zm0 0"/><path d="m220.691406 282.484375h70.617188v185.378906h-70.617188zm0 0"/><path d="m52.964844 476.691406h150.070312v-203.035156h-26.484375c-4.875 0-8.828125-3.953125-8.828125-8.828125v-176.550781c0-29.253906-23.710937-52.96875-52.964844-52.96875h-61.792968c-29.25 0-52.964844 23.714844-52.964844 52.96875v335.445312c0 29.253906 23.714844 52.96875 52.964844 52.96875zm30.898437-35.3125c-12.191406 0-22.070312-9.878906-22.070312-22.070312 0-12.1875 9.878906-22.066406 22.070312-22.066406 12.1875 0 22.066407 9.878906 22.066407 22.066406 0 12.191406-9.878907 22.070312-22.066407 22.070312zm0-370.757812c12.1875 0 22.066407 9.878906 22.066407 22.070312 0 12.1875-9.878907 22.066406-22.066407 22.066406-12.191406 0-22.070312-9.878906-22.070312-22.066406 0-12.191406 9.878906-22.070312 22.070312-22.070312zm-26.484375 158.894531c12.1875 0 22.070313 9.882813 22.070313 22.070313s-9.882813 22.070312-22.070313 22.070312-22.070312-9.882812-22.070312-22.070312 9.882812-22.070313 22.070312-22.070313zm0 0"/><path d="m344.277344 247.171875v176.550781c0 29.253906 23.710937 52.96875 52.964844 52.96875h61.792968c29.25 0 52.964844-23.714844 52.964844-52.96875v-335.445312c0-29.253906-23.714844-52.96875-52.964844-52.96875h-150.070312v203.035156h26.484375c4.875 0 8.828125 3.953125 8.828125 8.828125zm132.414062 13.242187c0 12.1875-9.882812 22.070313-22.070312 22.070313s-22.070313-9.882813-22.070313-22.070313 9.882813-22.070312 22.070313-22.070312 22.070312 9.882812 22.070312 22.070312zm-48.554687-189.792968c12.191406 0 22.070312 9.878906 22.070312 22.070312 0 12.1875-9.878906 22.066406-22.070312 22.066406-12.1875 0-22.066407-9.878906-22.066407-22.066406 0-12.191406 9.878907-22.070312 22.066407-22.070312zm0 326.621094c12.191406 0 22.070312 9.878906 22.070312 22.066406 0 12.191406-9.878906 22.070312-22.070312 22.070312-12.1875 0-22.066407-9.878906-22.066407-22.070312 0-12.1875 9.878907-22.066406 22.066407-22.066406zm0 0"/>
</svg>
